# xmcd
# 
# Track frame offsets:
#     150
#     21132
#     36523
#     49586
#     70334
#     89766
#     110461
#     125741
#     150775
#     170195
#     195709
# 
# Disc length: 2861
# 
# Revision: 7
# Processed by: cddbd v1.5.2PL0 Copyright (c) Steve Scherf et al.
# Submitted via: fre:ac v1.1beta1pre5
# 
DISCID=990b2b0b
DTITLE=The National - High Violet
DYEAR=2010
DGENRE=Alternative
TTITLE0=Terrible Love
TTITLE1=Sorrow
TTITLE2=Anyone's Ghost
TTITLE3=Little Faith
TTITLE4=Afraid Of Everyone
TTITLE5=Bloodbuzz Ohio
TTITLE6=Lemonworld
TTITLE7=Runaway
TTITLE8=Conversation 16
TTITLE9=England
TTITLE10=Vanderlyle Crybaby Geeks
EXTD=
EXTT0=
EXTT1=
EXTT2=
EXTT3=
EXTT4=
EXTT5=
EXTT6=
EXTT7=
EXTT8=
EXTT9=
EXTT10=
PLAYORDER=
